<?xml version="1.0" standalone="no"?>
<!DOCTYPE svg PUBLIC "-//W3C//DTD SVG 20010904//EN"
 "http://www.w3.org/TR/2001/REC-SVG-20010904/DTD/svg10.dtd">
<svg version="1.0" xmlns="http://www.w3.org/2000/svg"
 width="256.000000pt" height="256.000000pt" viewBox="0 0 256.000000 256.000000"
 preserveAspectRatio="xMidYMid meet">
<metadata>
Created by potrace 1.16, written by Peter Selinger 2001-2019
</metadata>
<g transform="translate(0.000000,256.000000) scale(0.100000,-0.100000)"
fill="#000000" stroke="none">
<path d="M1958 2520 c-20 -12 -25 -65 -7 -75 6 -4 38 -14 71 -21 123 -29 206
-95 257 -203 22 -48 26 -70 27 -160 2 -109 6 -121 50 -121 39 0 49 26 49 129
0 114 -17 172 -78 262 -66 100 -189 177 -307 193 -26 4 -53 2 -62 -4z"/>
<path d="M1920 2380 c-19 -35 1 -67 47 -76 135 -24 212 -119 213 -260 0 -78
11 -98 52 -92 35 5 50 43 45 123 -9 167 -135 306 -291 322 -49 5 -55 3 -66
-17z"/>
<path d="M1912 2264 c-24 -17 -29 -58 -9 -71 6 -4 32 -15 57 -23 59 -20 90
-65 90 -131 0 -97 84 -109 97 -13 11 86 -42 186 -119 222 -64 30 -91 34 -116
16z"/>
<path d="M1490 2237 c-36 -12 -89 -39 -118 -61 l-53 -38 -39 26 c-22 14 -45
26 -52 26 -7 0 -57 -31 -111 -69 -89 -63 -131 -95 -101 -78 6 3 24 -7 39 -23
16 -17 33 -30 38 -30 4 0 37 21 73 46 51 37 67 44 78 34 12 -9 11 -19 -9 -63
-13 -29 -27 -69 -31 -90 -6 -36 -4 -42 37 -83 30 -31 55 -46 80 -50 32 -5 37
-10 45 -45 7 -32 37 -67 159 -190 l150 -151 52 12 c73 16 142 53 197 106 l48
46 63 -44 63 -43 -51 -3 c-85 -5 -87 -9 -87 -197 l0 -161 41 -39 c23 -22 45
-49 49 -60 5 -12 9 57 9 168 l1 187 104 0 c86 0 108 3 126 18 42 34 22 59
-130 162 -101 69 -138 99 -133 110 44 109 42 243 -5 344 -96 206 -322 305
-532 233z"/>
</g>
</svg>
